<mxfile host="app.diagrams.net" agent="Mozilla/5.0 (Windows NT 10.0; Win64; x64) AppleWebKit/537.36 (KHTML, like Gecko) Chrome/121.0.0.0 Safari/537.36" version="26.0.2">
  <diagram name="第 1 页" id="bljRKDMBP5DQvN5Ejm93">
    <mxGraphModel dx="850" dy="920" grid="1" gridSize="10" guides="1" tooltips="1" connect="1" arrows="1" fold="1" page="1" pageScale="1" pageWidth="827" pageHeight="1169" math="0" shadow="0">
      <root>
        <mxCell id="0" />
        <mxCell id="1" parent="0" />
        <mxCell id="XcjyHV4zTzG0sbda_dcI-6" value="" style="group" vertex="1" connectable="0" parent="1">
          <mxGeometry x="180" y="233" width="130" height="137" as="geometry" />
        </mxCell>
        <mxCell id="XcjyHV4zTzG0sbda_dcI-2" value="Scene Encoder" style="rounded=1;whiteSpace=wrap;html=1;fillColor=#b0e3e6;strokeColor=#0e8088;" vertex="1" parent="XcjyHV4zTzG0sbda_dcI-6">
          <mxGeometry y="77" width="120" height="60" as="geometry" />
        </mxCell>
        <mxCell id="XcjyHV4zTzG0sbda_dcI-3" value="" style="endArrow=classic;html=1;rounded=0;" edge="1" parent="XcjyHV4zTzG0sbda_dcI-6">
          <mxGeometry width="50" height="50" relative="1" as="geometry">
            <mxPoint x="60" as="sourcePoint" />
            <mxPoint x="60" y="70" as="targetPoint" />
          </mxGeometry>
        </mxCell>
        <mxCell id="XcjyHV4zTzG0sbda_dcI-4" value="Pin,fin" style="text;html=1;align=center;verticalAlign=middle;whiteSpace=wrap;rounded=0;" vertex="1" parent="XcjyHV4zTzG0sbda_dcI-6">
          <mxGeometry x="70" y="17" width="60" height="30" as="geometry" />
        </mxCell>
        <mxCell id="XcjyHV4zTzG0sbda_dcI-7" value="Scene Encoder" style="rounded=1;whiteSpace=wrap;html=1;fillColor=#b0e3e6;strokeColor=#0e8088;" vertex="1" parent="1">
          <mxGeometry x="414" y="310" width="120" height="60" as="geometry" />
        </mxCell>
        <mxCell id="XcjyHV4zTzG0sbda_dcI-8" value="Textual Instruction It" style="text;html=1;align=center;verticalAlign=middle;whiteSpace=wrap;rounded=0;" vertex="1" parent="1">
          <mxGeometry x="484" y="250" width="116" height="30" as="geometry" />
        </mxCell>
        <mxCell id="XcjyHV4zTzG0sbda_dcI-10" value="" style="endArrow=classic;html=1;rounded=0;" edge="1" parent="1">
          <mxGeometry width="50" height="50" relative="1" as="geometry">
            <mxPoint x="473.5" y="233" as="sourcePoint" />
            <mxPoint x="473.5" y="303" as="targetPoint" />
          </mxGeometry>
        </mxCell>
        <mxCell id="XcjyHV4zTzG0sbda_dcI-11" value="Tokenizer" style="rounded=1;whiteSpace=wrap;html=1;fillColor=#b0e3e6;strokeColor=#0e8088;" vertex="1" parent="1">
          <mxGeometry x="414" y="429" width="126" height="60" as="geometry" />
        </mxCell>
        <mxCell id="XcjyHV4zTzG0sbda_dcI-14" value="" style="endArrow=classic;html=1;rounded=0;" edge="1" parent="1">
          <mxGeometry width="50" height="50" relative="1" as="geometry">
            <mxPoint x="475" y="379" as="sourcePoint" />
            <mxPoint x="475" y="419" as="targetPoint" />
          </mxGeometry>
        </mxCell>
      </root>
    </mxGraphModel>
  </diagram>
</mxfile>
